<svg width="25" height="25" viewBox="0 0 25 25" fill="none" xmlns="http://www.w3.org/2000/svg">
<path d="M1.31055 22.4502C1.31093 22.9807 1.52469 23.4893 1.90489 23.8643C2.28509 24.2394 2.80065 24.4503 3.33833 24.4507H18.34C19.629 24.4512 20.8798 24.0189 21.8866 23.2248C22.8934 22.4307 23.5962 21.3221 23.8793 20.0815C24.1625 18.841 24.0091 17.5422 23.4445 16.3991C22.8799 15.2559 21.9376 14.3364 20.7727 13.7919V5.65021C20.7726 5.54428 20.7299 5.44272 20.6539 5.36786L15.7884 0.56786C15.7125 0.492915 15.6096 0.450767 15.5022 0.450684H3.33833C2.80065 0.451058 2.28509 0.66194 1.90489 1.03702C1.52469 1.4121 1.31093 1.92071 1.31055 2.45115V22.4502ZM23.2055 18.8502C23.2055 19.7996 22.9201 20.7276 22.3855 21.5169C21.8509 22.3063 21.091 22.9215 20.2019 23.2848C19.3129 23.6481 18.3346 23.7432 17.3907 23.558C16.4469 23.3728 15.58 22.9156 14.8995 22.2443C14.219 21.573 13.7556 20.7178 13.5679 19.7866C13.3802 18.8555 13.4765 17.8904 13.8448 17.0133C14.213 16.1362 14.8367 15.3866 15.6368 14.8592C16.4369 14.3317 17.3776 14.0502 18.34 14.0502C19.6304 14.0502 20.868 14.5559 21.7804 15.4561C22.6929 16.3563 23.2055 17.5772 23.2055 18.8502ZM15.9072 1.81586L19.3889 5.25068H17.1236C16.8011 5.25031 16.4919 5.12376 16.2639 4.8988C16.0358 4.67384 15.9076 4.36883 15.9072 4.05068V1.81586ZM2.12195 2.44974C2.12233 2.1316 2.2506 1.82659 2.47864 1.60163C2.70667 1.37667 3.01584 1.25012 3.33833 1.24974H15.0972V4.05068C15.0976 4.58113 15.3114 5.08974 15.6916 5.46482C16.0718 5.8399 16.5873 6.05078 17.125 6.05115H19.9628V13.4841C18.6387 13.0962 17.2168 13.198 15.9633 13.7703C14.7099 14.3426 13.711 15.3462 13.1539 16.593C12.5968 17.8398 12.5196 19.2442 12.9369 20.5431C13.3542 21.842 14.2372 22.9462 15.4206 23.6488H3.33833C3.01584 23.6484 2.70667 23.5219 2.47864 23.2969C2.2506 23.072 2.12233 22.7669 2.12195 22.4488V2.44974Z" fill="#B4B4B4" stroke="white" stroke-width="0.5"/>
<path d="M4.14789 10.8513H12.2576C12.3652 10.8513 12.4684 10.8091 12.5445 10.734C12.6206 10.659 12.6633 10.5572 12.6633 10.451C12.6633 10.3449 12.6206 10.2431 12.5445 10.168C12.4684 10.093 12.3652 10.0508 12.2576 10.0508H4.14789C4.04029 10.0508 3.9371 10.093 3.86102 10.168C3.78494 10.2431 3.74219 10.3449 3.74219 10.451C3.74219 10.5572 3.78494 10.659 3.86102 10.734C3.9371 10.8091 4.04029 10.8513 4.14789 10.8513Z" fill="#B4B4B4" stroke="white" stroke-width="0.5"/>
<path d="M13.8804 12.4507H10.6362C10.5286 12.4507 10.4254 12.4929 10.3493 12.5679C10.2732 12.643 10.2305 12.7448 10.2305 12.8509C10.2305 12.9571 10.2732 13.0589 10.3493 13.1339C10.4254 13.209 10.5286 13.2511 10.6362 13.2511H13.8804C13.988 13.2511 14.0911 13.209 14.1672 13.1339C14.2433 13.0589 14.286 12.9571 14.286 12.8509C14.286 12.7448 14.2433 12.643 14.1672 12.5679C14.0911 12.4929 13.988 12.4507 13.8804 12.4507Z" fill="#B4B4B4" stroke="white" stroke-width="0.5"/>
<path d="M17.9355 10.0508H13.8813C13.7737 10.0508 13.6705 10.093 13.5944 10.168C13.5183 10.2431 13.4756 10.3449 13.4756 10.451C13.4756 10.5572 13.5183 10.659 13.5944 10.734C13.6705 10.8091 13.7737 10.8513 13.8813 10.8513H17.9355C18.0431 10.8513 18.1463 10.8091 18.2223 10.734C18.2984 10.659 18.3412 10.5572 18.3412 10.451C18.3412 10.3449 18.2984 10.2431 18.2223 10.168C18.1463 10.093 18.0431 10.0508 17.9355 10.0508Z" fill="#B4B4B4" stroke="white" stroke-width="0.5"/>
<path d="M4.14789 13.2511H9.01344C9.12103 13.2511 9.22422 13.209 9.30031 13.1339C9.37639 13.0589 9.41914 12.9571 9.41914 12.8509C9.41914 12.7448 9.37639 12.643 9.30031 12.5679C9.22422 12.4929 9.12103 12.4507 9.01344 12.4507H4.14789C4.04029 12.4507 3.9371 12.4929 3.86102 12.5679C3.78494 12.643 3.74219 12.7448 3.74219 12.8509C3.74219 12.9571 3.78494 13.0589 3.86102 13.1339C3.9371 13.209 4.04029 13.2511 4.14789 13.2511Z" fill="#B4B4B4" stroke="white" stroke-width="0.5"/>
<path d="M10.6365 19.6509H9.01507C8.90747 19.6509 8.80429 19.6931 8.72821 19.7681C8.65212 19.8432 8.60938 19.945 8.60938 20.0511C8.60938 20.1573 8.65212 20.2591 8.72821 20.3341C8.80429 20.4092 8.90747 20.4513 9.01507 20.4513H10.6365C10.7441 20.4513 10.8472 20.4092 10.9233 20.3341C10.9994 20.2591 11.0421 20.1573 11.0421 20.0511C11.0421 19.945 10.9994 19.8432 10.9233 19.7681C10.8472 19.6931 10.7441 19.6509 10.6365 19.6509Z" fill="#B4B4B4" stroke="white" stroke-width="0.5"/>
<path d="M4.14789 20.4513H7.39207C7.49967 20.4513 7.60286 20.4092 7.67894 20.3341C7.75503 20.2591 7.79777 20.1573 7.79777 20.0511C7.79777 19.945 7.75503 19.8432 7.67894 19.7681C7.60286 19.6931 7.49967 19.6509 7.39207 19.6509H4.14789C4.04029 19.6509 3.9371 19.6931 3.86102 19.7681C3.78494 19.8432 3.74219 19.945 3.74219 20.0511C3.74219 20.1573 3.78494 20.2591 3.86102 20.3341C3.9371 20.4092 4.04029 20.4513 4.14789 20.4513Z" fill="#B4B4B4" stroke="white" stroke-width="0.5"/>
<path d="M4.14789 18.0509H6.58067C6.68827 18.0509 6.79146 18.0088 6.86754 17.9338C6.94362 17.8587 6.98637 17.7569 6.98637 17.6507C6.98637 17.5446 6.94362 17.4428 6.86754 17.3677C6.79146 17.2927 6.68827 17.2505 6.58067 17.2505H4.14789C4.04029 17.2505 3.9371 17.2927 3.86102 17.3677C3.78494 17.4428 3.74219 17.5446 3.74219 17.6507C3.74219 17.7569 3.78494 17.8587 3.86102 17.9338C3.9371 18.0088 4.04029 18.0509 4.14789 18.0509Z" fill="#B4B4B4" stroke="white" stroke-width="0.5"/>
<path d="M4.14789 6.05096H9.01344C9.12103 6.05096 9.22422 6.00879 9.30031 5.93373C9.37639 5.85867 9.41914 5.75687 9.41914 5.65072C9.41914 5.54458 9.37639 5.44278 9.30031 5.36772C9.22422 5.29266 9.12103 5.25049 9.01344 5.25049H4.14789C4.04029 5.25049 3.9371 5.29266 3.86102 5.36772C3.78494 5.44278 3.74219 5.54458 3.74219 5.65072C3.74219 5.75687 3.78494 5.85867 3.86102 5.93373C3.9371 6.00879 4.04029 6.05096 4.14789 6.05096Z" fill="#B4B4B4" stroke="white" stroke-width="0.5"/>
<path d="M10.6344 17.2505H8.20161C8.09401 17.2505 7.99081 17.2927 7.91473 17.3677C7.83865 17.4428 7.7959 17.5446 7.7959 17.6507C7.7959 17.7569 7.83865 17.8587 7.91473 17.9338C7.99081 18.0088 8.09401 18.0509 8.20161 18.0509H10.6344C10.742 18.0509 10.8452 18.0088 10.9213 17.9338C10.9973 17.8587 11.0401 17.7569 11.0401 17.6507C11.0401 17.5446 10.9973 17.4428 10.9213 17.3677C10.8452 17.2927 10.742 17.2505 10.6344 17.2505Z" fill="#B4B4B4" stroke="white" stroke-width="0.5"/>
<path d="M16.0518 16.1436C16.0107 16.1773 15.9767 16.2186 15.9518 16.2652C15.927 16.3119 15.9117 16.3629 15.9069 16.4154C15.9021 16.4679 15.9079 16.5208 15.9239 16.5711C15.94 16.6213 15.9659 16.668 16.0003 16.7083C16.0003 16.7083 17.5372 18.5309 18.0267 19.1083C18.0944 19.1887 18.1916 19.2395 18.2971 19.2495H18.34H21.1778C21.2854 19.2495 21.3886 19.2074 21.4647 19.1323C21.5408 19.0572 21.5835 18.9554 21.5835 18.8493C21.5835 18.7431 21.5408 18.6413 21.4647 18.5663C21.3886 18.4912 21.2854 18.449 21.1778 18.449H18.5289L16.6228 16.1902C16.5884 16.1501 16.5464 16.1172 16.4991 16.0931C16.4517 16.0691 16.4001 16.0545 16.3471 16.0502C16.294 16.0459 16.2407 16.0519 16.19 16.0679C16.1394 16.084 16.0924 16.1097 16.0518 16.1436Z" fill="#B4B4B4" stroke="white" stroke-width="0.5"/>
</svg>
